<svg width="53" height="53" viewBox="0 0 53 53" fill="none" xmlns="http://www.w3.org/2000/svg">
<path d="M26.5 46.375C37.4767 46.375 46.375 37.4767 46.375 26.5C46.375 15.5233 37.4767 6.625 26.5 6.625C15.5233 6.625 6.625 15.5233 6.625 26.5C6.625 37.4767 15.5233 46.375 26.5 46.375Z" stroke="black" stroke-width="2" stroke-linecap="round" stroke-linejoin="round"/>
<path d="M19.0469 28.9844C20.419 28.9844 21.5312 27.8721 21.5312 26.5C21.5312 25.1279 20.419 24.0156 19.0469 24.0156C17.6748 24.0156 16.5625 25.1279 16.5625 26.5C16.5625 27.8721 17.6748 28.9844 19.0469 28.9844Z" fill="black"/>
<path d="M33.9531 28.9844C35.3252 28.9844 36.4375 27.8721 36.4375 26.5C36.4375 25.1279 35.3252 24.0156 33.9531 24.0156C32.581 24.0156 31.4688 25.1279 31.4688 26.5C31.4688 27.8721 32.581 28.9844 33.9531 28.9844Z" fill="black"/>
<path d="M31.9863 34.7812C30.3604 35.8611 28.4519 36.4371 26.5 36.4371C24.5481 36.4371 22.6396 35.8611 21.0137 34.7812" stroke="black" stroke-width="2" stroke-linecap="round" stroke-linejoin="round"/>
<path d="M26.5 6.625C23.1875 10.7656 23.1875 14.9062 23.1875 14.9062C23.1875 15.7848 23.5365 16.6273 24.1577 17.2485C24.7789 17.8698 25.6215 18.2188 26.5 18.2188C27.3785 18.2188 28.2211 17.8698 28.8423 17.2485C29.4635 16.6273 29.8125 15.7848 29.8125 14.9062" stroke="black" stroke-width="2" stroke-linecap="round" stroke-linejoin="round"/>
</svg>
