<svg width="42" height="33" viewBox="0 0 42 33" fill="none" xmlns="http://www.w3.org/2000/svg">
<path d="M14.2289 3.4914C12.0839 3.0558 9.83576 3.2406 8.07439 4.0293C6.28001 4.8312 5.02188 6.2535 4.96001 8.15595C4.86513 11.1293 5.7252 15.119 9.1407 19.8017C12.5129 24.4266 16.2357 27.1986 19.3253 28.8453C21.2764 29.8865 23.4318 29.9145 25.2736 29.2364C27.0886 28.5681 28.5612 27.2333 29.3264 25.5783C29.5168 25.1667 29.5933 24.7269 29.5506 24.2894C29.5079 23.8518 29.3469 23.4269 29.0789 23.0439L27.1113 20.2356C26.5064 19.3713 25.533 18.7099 24.3689 18.3724C23.2048 18.0349 21.9277 18.0438 20.7711 18.3975L19.3975 18.8183C18.7313 19.0212 18.1188 18.9272 17.7723 18.6533C16.6069 17.7375 15.7737 16.4951 15.3963 15.1553C15.2766 14.7329 15.52 14.2346 16.1016 13.8831L17.3412 13.134C18.3433 12.5291 19.0351 11.6524 19.2869 10.6685C19.5386 9.68455 19.333 8.66095 18.7086 7.78965L16.7039 4.9929C16.4383 4.62263 16.0823 4.29889 15.6571 4.04094C15.2319 3.78299 14.7462 3.5961 14.2289 3.4914ZM7.02251 8.2005C7.06376 6.9234 7.87226 6.01095 9.08088 5.46975C10.3225 4.9137 12.0179 4.74375 13.7215 5.09025C13.9711 5.14069 14.2055 5.23082 14.4107 5.35527C14.6159 5.47971 14.7876 5.63593 14.9157 5.8146L16.9184 8.61135C17.293 9.13392 17.4165 9.74783 17.2657 10.338C17.115 10.9282 16.7004 11.4542 16.0996 11.8173L14.86 12.5664C13.7875 13.2132 13.045 14.322 13.3833 15.5183C13.8411 17.1386 14.8538 18.6747 16.3264 19.8314C17.4031 20.6762 18.9376 20.7257 20.1338 20.3594L21.5074 19.9386C22.2015 19.7261 22.9679 19.7205 23.6666 19.9229C24.3654 20.1253 24.9497 20.5221 25.3128 21.0408L27.2783 23.8508C27.5258 24.2039 27.5671 24.6263 27.3918 25.0058C26.7936 26.301 25.6696 27.2729 24.4114 27.7365C23.1801 28.1903 21.7879 28.1771 20.47 27.4725C17.6423 25.9644 14.1381 23.3789 10.9206 18.9701C7.70107 14.5481 6.93795 10.862 7.02457 8.2005H7.02251ZM37.5743 3.5409C37.7677 3.69561 37.8763 3.90542 37.8763 4.12418C37.8763 4.34294 37.7677 4.55274 37.5743 4.70745L27.2618 12.9575C27.166 13.0343 27.0522 13.0952 26.9269 13.1368C26.8017 13.1784 26.6673 13.1998 26.5317 13.1998C26.3961 13.1998 26.2617 13.1784 26.1365 13.1368C26.0112 13.0952 25.8974 13.0343 25.8016 12.9575L21.6766 9.65745C21.4832 9.50254 21.3747 9.29252 21.3749 9.0736C21.375 8.96519 21.4018 8.85787 21.4537 8.75775C21.5056 8.65763 21.5817 8.56668 21.6776 8.49008C21.7735 8.41348 21.8873 8.35274 22.0125 8.31133C22.1377 8.26992 22.2719 8.24864 22.4074 8.24872C22.6811 8.24887 22.9435 8.33599 23.1368 8.4909L26.5317 11.2068L36.1141 3.5409C36.2099 3.46407 36.3237 3.40312 36.449 3.36153C36.5742 3.31994 36.7086 3.29853 36.8442 3.29853C36.9798 3.29853 37.1142 3.31994 37.2394 3.36153C37.3647 3.40312 37.4785 3.46407 37.5743 3.5409Z" fill="white"/>
</svg>
