<svg width="34" height="27" viewBox="0 0 34 27" fill="none" xmlns="http://www.w3.org/2000/svg">
<path d="M10.2289 0.491396C8.08388 0.0557955 5.83576 0.240596 4.07439 1.0293C2.28001 1.8312 1.02188 3.2535 0.96001 5.15595C0.865135 8.12925 1.7252 12.1189 5.1407 16.8016C8.51288 21.4266 12.2357 24.1986 15.3253 25.8453C17.2764 26.8864 19.4318 26.9145 21.2736 26.2363C23.0886 25.5681 24.5612 24.2332 25.3264 22.5783C25.5168 22.1667 25.5933 21.7269 25.5506 21.2893C25.5079 20.8518 25.3469 20.4268 25.0789 20.0439L23.1113 17.2356C22.5064 16.3713 21.533 15.7099 20.3689 15.3724C19.2048 15.0349 17.9277 15.0438 16.7711 15.3975L15.3975 15.8182C14.7313 16.0212 14.1188 15.9271 13.7723 15.6532C12.6069 14.7375 11.7737 13.495 11.3963 12.1552C11.2766 11.7328 11.52 11.2345 12.1016 10.8831L13.3412 10.134C14.3433 9.52905 15.0351 8.6524 15.2869 7.66847C15.5386 6.68455 15.333 5.66094 14.7086 4.78965L12.7039 1.9929C12.4383 1.62263 12.0823 1.29888 11.6571 1.04093C11.2319 0.782984 10.7462 0.596097 10.2289 0.491396V0.491396ZM3.02251 5.2005C3.06376 3.9234 3.87226 3.01095 5.08089 2.46975C6.32251 1.9137 8.01788 1.74375 9.72151 2.09025C9.97114 2.14068 10.2055 2.23081 10.4107 2.35526C10.6159 2.4797 10.7876 2.63592 10.9157 2.8146L12.9184 5.61135C13.293 6.13391 13.4165 6.74782 13.2657 7.33802C13.115 7.92821 12.7004 8.45416 12.0996 8.8173L10.86 9.5664C9.78751 10.2132 9.04501 11.322 9.38326 12.5182C9.84113 14.1385 10.8538 15.6747 12.3264 16.8313C13.4031 17.6761 14.9376 17.7256 16.1338 17.3593L17.5074 16.9386C18.2015 16.7261 18.9679 16.7205 19.6666 16.9229C20.3654 17.1253 20.9497 17.5221 21.3128 18.0408L23.2783 20.8507C23.5258 21.2038 23.5671 21.6262 23.3918 22.0057C22.7936 23.301 21.6696 24.2728 20.4114 24.7365C19.1801 25.1902 17.7879 25.177 16.47 24.4725C13.6423 22.9644 10.1381 20.3788 6.92064 15.97C3.70107 11.548 2.93795 7.86195 3.02457 5.2005H3.02251ZM33.5743 0.540896C33.7677 0.695606 33.8763 0.90541 33.8763 1.12417C33.8763 1.34293 33.7677 1.55274 33.5743 1.70745L23.2618 9.95745C23.166 10.0343 23.0522 10.0952 22.9269 10.1368C22.8017 10.1784 22.6673 10.1998 22.5317 10.1998C22.3961 10.1998 22.2617 10.1784 22.1365 10.1368C22.0112 10.0952 21.8974 10.0343 21.8016 9.95745L17.6766 6.65745C17.4832 6.50253 17.3747 6.29251 17.3749 6.07359C17.375 5.96519 17.4018 5.85786 17.4537 5.75774C17.5056 5.65762 17.5817 5.56667 17.6776 5.49007C17.7735 5.41347 17.8873 5.35274 18.0125 5.31132C18.1377 5.26991 18.2719 5.24864 18.4074 5.24871C18.6811 5.24887 18.9435 5.33598 19.1368 5.4909L22.5317 8.2068L32.1141 0.540896C32.2099 0.464066 32.3237 0.403111 32.449 0.36152C32.5742 0.319929 32.7086 0.298521 32.8442 0.298521C32.9798 0.298521 33.1142 0.319929 33.2394 0.36152C33.3647 0.403111 33.4785 0.464066 33.5743 0.540896V0.540896Z" fill="#010101"/>
</svg>
