<svg width="49" height="49" viewBox="0 0 49 49" fill="none" xmlns="http://www.w3.org/2000/svg">
<path d="M24.5 24.5V6.125" stroke="black" stroke-width="2" stroke-linecap="round" stroke-linejoin="round"/>
<path d="M40.4058 15.3125L8.59412 33.6875" stroke="black" stroke-width="2" stroke-linecap="round" stroke-linejoin="round"/>
<path d="M6.43132 27.8687C6.22241 26.7581 6.11987 25.6301 6.12507 24.5C6.12265 20.6998 7.29976 16.9925 9.49396 13.8898C11.6882 10.7871 14.7913 8.44182 18.3751 7.17773V20.959L6.43132 27.8687Z" stroke="black" stroke-width="2" stroke-linecap="round" stroke-linejoin="round"/>
<path d="M24.5 6.125C27.7198 6.12536 30.8829 6.97176 33.6726 8.57939C36.4623 10.187 38.7806 12.4995 40.3953 15.2851C42.01 18.0707 42.8643 21.2317 42.8728 24.4515C42.8813 27.6712 42.0437 30.8367 40.4437 33.6308C38.8438 36.4249 36.5377 38.7496 33.7566 40.3719C30.9754 41.9943 27.8168 42.8574 24.5971 42.8747C21.3773 42.8921 18.2096 42.0632 15.4111 40.4709C12.6126 38.8787 10.2816 36.579 8.65155 33.8023" stroke="black" stroke-width="2" stroke-linecap="round" stroke-linejoin="round"/>
</svg>
