<svg width="32" height="32" viewBox="0 0 29 23" fill="none" xmlns="http://www.w3.org/2000/svg">
<path d="M6.86942 23.0005C5.0478 23.0005 3.3008 22.2739 2.01272 20.9805C0.724642 19.6871 0.00100751 17.9329 0.00100751 16.1037V15.3374C-0.00529428 12.0838 0.950802 8.90157 2.74805 6.1943C4.5453 3.48703 7.10274 1.37667 10.0961 0.130838C10.2817 0.0485943 10.4819 0.00436277 10.6848 0.000731606C10.8877 -0.00289956 11.0894 0.0341428 11.2778 0.109691C11.4663 0.185239 11.6379 0.297775 11.7826 0.440716C11.9272 0.583657 12.0421 0.754132 12.1203 0.942165C12.1986 1.1302 12.2387 1.33202 12.2383 1.53581C12.238 1.7396 12.1971 1.94127 12.1182 2.12903C12.0393 2.31678 11.9239 2.48685 11.7787 2.62927C11.6336 2.7717 11.4616 2.88363 11.2728 2.95851C8.836 3.97264 6.75396 5.69054 5.29068 7.89437C3.82741 10.0982 3.04882 12.6887 3.05364 15.3374V16.1037C3.05364 16.8615 3.27743 17.6023 3.69671 18.2324C4.116 18.8625 4.71194 19.3536 5.40918 19.6436C6.10643 19.9336 6.87365 20.0095 7.61384 19.8616C8.35403 19.7138 9.03394 19.3489 9.56759 18.813C10.1012 18.2772 10.4647 17.5945 10.6119 16.8512C10.7591 16.108 10.6836 15.3376 10.3947 14.6375C10.1059 13.9373 9.61686 13.3389 8.98936 12.9179C8.36186 12.4969 7.62411 12.2722 6.86942 12.2722C6.46462 12.2722 6.07639 12.1107 5.79015 11.8233C5.50391 11.5359 5.34311 11.1461 5.34311 10.7396C5.34311 10.3331 5.50391 9.94328 5.79015 9.65586C6.07639 9.36844 6.46462 9.20697 6.86942 9.20697C8.69104 9.20697 10.438 9.93359 11.7261 11.227C13.0142 12.5204 13.7378 14.2746 13.7378 16.1037C13.7378 17.9329 13.0142 19.6871 11.7261 20.9805C10.438 22.2739 8.69104 23.0005 6.86942 23.0005ZM22.1326 23.0005C20.3109 23.0005 18.5639 22.2739 17.2759 20.9805C15.9878 19.6871 15.2641 17.9329 15.2641 16.1037V15.3374C15.2581 12.0841 16.2144 8.90217 18.0116 6.1952C19.8088 3.48823 22.3661 1.3781 25.3592 0.132371C25.5449 0.0501268 25.745 0.00589528 25.948 0.00226411C26.1509 -0.00136706 26.3525 0.0356753 26.541 0.111223C26.7295 0.186771 26.9011 0.299308 27.0457 0.442249C27.1904 0.58519 27.3052 0.755664 27.3835 0.943698C27.4617 1.13173 27.5018 1.33355 27.5015 1.53734C27.5011 1.74113 27.4603 1.9428 27.3814 2.13056C27.3025 2.31831 27.187 2.48838 27.0419 2.63081C26.8967 2.77323 26.7247 2.88516 26.536 2.96004C24.0994 3.97408 22.0175 5.69173 20.5542 7.89526C19.091 10.0988 18.3123 12.689 18.3168 15.3374V16.1037C18.3168 16.8615 18.5406 17.6023 18.9599 18.2324C19.3791 18.8625 19.9751 19.3536 20.6723 19.6436C21.3696 19.9336 22.1368 20.0095 22.877 19.8616C23.6172 19.7138 24.2971 19.3489 24.8307 18.813C25.3644 18.2772 25.7278 17.5945 25.875 16.8512C26.0223 16.108 25.9467 15.3376 25.6579 14.6375C25.3691 13.9373 24.88 13.3389 24.2525 12.9179C23.625 12.4969 22.8873 12.2722 22.1326 12.2722C21.7278 12.2722 21.3395 12.1107 21.0533 11.8233C20.7671 11.5359 20.6062 11.1461 20.6062 10.7396C20.6062 10.3331 20.7671 9.94328 21.0533 9.65586C21.3395 9.36844 21.7278 9.20697 22.1326 9.20697C23.9542 9.20697 25.7012 9.93359 26.9893 11.227C28.2773 12.5204 29.001 14.2746 29.001 16.1037C29.001 17.9329 28.2773 19.6871 26.9893 20.9805C25.7012 22.2739 23.9542 23.0005 22.1326 23.0005Z" fill="black"/>
</svg>
