<svg width="32" height="32" viewBox="0 0 32 32" fill="none" xmlns="http://www.w3.org/2000/svg">
<path d="M26.2882 4.48752L2.98823 11.05C2.78989 11.1042 2.61308 11.2183 2.4819 11.3766C2.35072 11.535 2.27154 11.7299 2.25514 11.9349C2.23874 12.1398 2.28593 12.3449 2.39027 12.5221C2.49461 12.6992 2.65103 12.84 2.83823 12.925L13.5382 17.9875C13.7478 18.0846 13.9162 18.2529 14.0132 18.4625L19.0757 29.1625C19.1608 29.3497 19.3015 29.5061 19.4787 29.6105C19.6559 29.7148 19.8609 29.762 20.0659 29.7456C20.2708 29.7292 20.4658 29.65 20.6241 29.5188C20.7825 29.3877 20.8965 29.2109 20.9507 29.0125L27.5132 5.71252C27.563 5.54249 27.566 5.36222 27.5221 5.19059C27.4782 5.01897 27.389 4.86231 27.2637 4.73705C27.1384 4.61178 26.9818 4.52252 26.8102 4.47862C26.6385 4.43472 26.4583 4.43779 26.2882 4.48752V4.48752Z" stroke="black" stroke-width="2" stroke-linecap="round" stroke-linejoin="round"/>
<path d="M13.8633 18.1375L19.5133 12.4875" stroke="black" stroke-width="2" stroke-linecap="round" stroke-linejoin="round"/>
</svg>
