<svg width="31" height="31" viewBox="0 0 31 31" fill="none" xmlns="http://www.w3.org/2000/svg">
<path d="M28.5569 0.999996H30.4999V0H28.5L15.445 2.99999H4.72254C2.1185 2.99999 0 5.11849 0 7.72253V14.2775C0 16.8815 2.1185 18.9999 4.72254 18.9999H5.50003V29.4099C5.50003 30.2864 6.21353 30.9999 7.09 30.9999H9.41053C10.287 30.9999 11.0005 30.2869 11.0005 29.4099V22.9999H12.7934C13.4584 22.9999 14 22.4584 14 21.7929C14 21.4753 13.871 21.1644 13.6465 20.9393L13.061 20.3538C13.0219 20.3148 13 20.2614 13 20.2069V18.9998H15.4435L28.388 21.9873L30.4999 21.9998V20.9998H28.5569L15.9999 18.1024V3.89748L28.5569 0.999996ZM4.72254 17.9999C2.67007 17.9999 1.0001 16.33 1.0001 14.2775V7.72253C1.0001 5.67006 2.67007 4.00009 4.72254 4.00009H15.0001V18H11.0001H5.50003H4.72254V17.9999ZM9.99997 29.4099C9.99997 29.7349 9.73543 29.9999 9.40999 29.9999H7.09C6.76499 29.9999 6.50003 29.7354 6.50003 29.4099V18.9999H9.99997V29.4099ZM12.3535 21.0604L12.9389 21.6459C12.978 21.6849 13 21.7384 13 21.7929C13 21.9069 12.9069 21.9999 12.7929 21.9999H11V18.9999H12V20.207C12 20.5244 12.129 20.8354 12.3535 21.0604Z" fill="#333333"/>
<path d="M11.5 11.9999C11.5 11.7049 11.4115 11.4314 11.2635 11.199L12.2955 9.4795C12.3631 9.48846 12.43 9.49998 12.5 9.49998C13.327 9.49998 14.0001 8.82702 14.0001 7.99993C14.0001 7.17284 13.3271 6.49988 12.5 6.49988C11.6729 6.49988 11 7.17294 11 7.99993C11 8.39438 11.156 8.75096 11.4055 9.01891L10.4675 10.5824C10.3194 10.5329 10.1645 10.5 9.99997 10.5C9.59645 10.5 9.23144 10.662 8.96147 10.9219L7.93598 10.409C7.97353 10.278 7.99998 10.1425 7.99998 10C7.99998 9.17304 7.32702 8.49998 6.49993 8.49998C5.67284 8.49998 4.99999 9.17294 4.99999 9.99992C4.99999 10.2824 5.08298 10.5439 5.21951 10.7694L4.00405 12.593C3.84554 12.5364 3.67754 12.5 3.50005 12.5C2.67306 12.5 2 13.1729 2 13.9999C2 14.8269 2.67296 15.5 3.50005 15.5C4.32714 15.5 5.0001 14.827 5.0001 13.9999C5.0001 13.7175 4.91711 13.4559 4.78058 13.2304L5.99604 11.407C6.15455 11.4635 6.32255 11.5 6.50004 11.5C6.81556 11.5 7.10804 11.401 7.34953 11.2339L8.51806 11.8185C8.51102 11.8785 8.50003 11.9379 8.50003 12C8.50003 12.827 9.17299 13.5001 10.0001 13.5001C10.8272 13.5001 11.5 12.8269 11.5 11.9999ZM12.5 7.49998C12.7761 7.49998 13.0001 7.72451 13.0001 8.00003C13.0001 8.27555 12.7761 8.50009 12.5 8.50009C12.224 8.50009 12 8.27555 12 8.00003C12 7.72451 12.224 7.49998 12.5 7.49998ZM3.50005 14.5C3.224 14.5 3 14.2754 3 13.9999C3 13.7244 3.224 13.5 3.50005 13.5C3.7761 13.5 4.0001 13.7245 4.0001 13.9999C3.99999 14.2754 3.77599 14.5 3.50005 14.5ZM5.99999 9.99992C5.99999 9.7244 6.22399 9.49987 6.50004 9.49987C6.77609 9.49987 7.00009 9.7244 7.00009 9.99992C7.00009 10.2754 6.77609 10.5 6.50004 10.5C6.22399 10.5 5.99999 10.2754 5.99999 9.99992ZM9.99997 12.5C9.72392 12.5 9.49992 12.2754 9.49992 11.9999C9.49992 11.7244 9.72392 11.4999 9.99997 11.4999C10.276 11.4999 10.5 11.7244 10.5 11.9999C10.5 12.2754 10.276 12.5 9.99997 12.5Z" fill="#333333"/>
<path d="M31 0H28.5V21.9999H31V0Z" fill="#F9BA48"/>
</svg>
