<svg width="41" height="41" viewBox="0 0 41 41" fill="none" xmlns="http://www.w3.org/2000/svg">
<path d="M24.3438 12.8125V32.6238C24.3418 32.8368 24.3937 33.0467 24.4944 33.2343C24.5952 33.4219 24.7417 33.581 24.9204 33.6969L26.6821 34.866C26.8528 34.98 27.0483 35.0512 27.2523 35.0739C27.4562 35.0965 27.6626 35.0698 27.8541 34.996C28.0456 34.9223 28.2166 34.8036 28.3526 34.65C28.4887 34.4963 28.5859 34.3123 28.636 34.1133L30.7501 25.625" stroke="black" stroke-width="2" stroke-linecap="round" stroke-linejoin="round"/>
<path d="M30.75 25.6248C32.449 25.6248 34.0785 24.9499 35.2799 23.7485C36.4813 22.5471 37.1562 20.9176 37.1562 19.2186C37.1562 17.5195 36.4813 15.8901 35.2799 14.6887C34.0785 13.4873 32.449 12.8123 30.75 12.8123H24.3438C24.3438 12.8123 15.6152 12.8123 7.22305 5.78145C7.03639 5.62699 6.80975 5.52861 6.56944 5.49775C6.32913 5.46688 6.085 5.50478 5.86536 5.60706C5.64572 5.70933 5.45958 5.87179 5.32854 6.07557C5.1975 6.27936 5.12692 6.51613 5.125 6.7584V31.6787C5.12692 31.921 5.1975 32.1578 5.32854 32.3615C5.45958 32.5653 5.64572 32.7278 5.86536 32.8301C6.085 32.9323 6.32913 32.9702 6.56944 32.9394C6.80975 32.9085 7.03639 32.8101 7.22305 32.6557C15.6152 25.6248 24.3438 25.6248 24.3438 25.6248H30.75Z" stroke="black" stroke-width="3" stroke-linecap="round" stroke-linejoin="round"/>
</svg>
