<svg width="49" height="49" viewBox="0 0 49 49" fill="none" xmlns="http://www.w3.org/2000/svg">
<path d="M42.6834 23.6387L24.2701 42.052C23.6935 42.6201 22.9166 42.9385 22.1072 42.9385C21.2978 42.9385 20.5209 42.6201 19.9443 42.052L3.69393 25.8016C3.12583 25.225 2.80737 24.4481 2.80737 23.6387C2.80737 22.8293 3.12583 22.0523 3.69393 21.4758L22.1072 3.0625L42.6834 23.6387Z" stroke="black" stroke-width="3" stroke-linecap="round" stroke-linejoin="round"/>
<path d="M23.7344 26.0312C25.8486 26.0312 27.5625 24.3173 27.5625 22.2031C27.5625 20.0889 25.8486 18.375 23.7344 18.375C21.6202 18.375 19.9062 20.0889 19.9062 22.2031C19.9062 24.3173 21.6202 26.0312 23.7344 26.0312Z" stroke="black" stroke-width="3" stroke-linecap="round" stroke-linejoin="round"/>
<path d="M39.8125 39.0469C39.8125 35.2188 43.6406 31.3906 43.6406 31.3906C43.6406 31.3906 47.4688 35.2188 47.4688 39.0469C47.4688 40.0622 47.0654 41.0359 46.3475 41.7538C45.6296 42.4717 44.6559 42.875 43.6406 42.875C42.6253 42.875 41.6516 42.4717 40.9337 41.7538C40.2158 41.0359 39.8125 40.0622 39.8125 39.0469V39.0469Z" stroke="black" stroke-width="3" stroke-linecap="round" stroke-linejoin="round"/>
<path d="M21.0356 19.5044L7.25439 5.72314" stroke="black" stroke-width="3" stroke-linecap="round" stroke-linejoin="round"/>
</svg>
