<svg width="32" height="32" viewBox="0 0 32 32" fill="none" xmlns="http://www.w3.org/2000/svg">
<path d="M17.8361 4.72131L0 22.5574L9.4426 32L27.2787 14.1639L25.7049 6.29512L17.8361 4.72131Z" fill="#F9BA48"/>
<path d="M8.45579 23.5451C8.44058 23.1307 8.27214 22.7436 7.97734 22.4488C7.33894 21.8104 6.30021 21.8104 5.66181 22.4488L3.97949 24.1311L7.86883 28.0204L9.55115 26.338C9.86071 26.029 10.0311 25.6177 10.0311 25.1802C10.0311 24.7427 9.8606 24.3314 9.55115 24.0224C9.24797 23.7193 8.85392 23.5598 8.45579 23.5451ZM8.80941 25.5963L7.86883 26.5368L5.46307 24.1311L6.40365 23.1905C6.63345 22.9618 7.00592 22.9618 7.23561 23.1905C7.34687 23.3018 7.40824 23.4492 7.40824 23.6065C7.40824 23.7639 7.34687 23.9113 7.23561 24.0225L6.44871 24.8094L7.19044 25.5511L7.97734 24.7642C8.20715 24.5355 8.57961 24.5355 8.8093 24.7642C8.92057 24.8755 8.98193 25.0229 8.98193 25.1802C8.98193 25.3376 8.92057 25.485 8.80941 25.5963Z" fill="#333333"/>
<path d="M17.4652 10.6455L16.5697 11.541L20.459 15.4303L21.3546 14.5348C21.8739 14.0155 22.1603 13.3245 22.1603 12.5902C22.1603 11.8558 21.8739 11.1649 21.3546 10.6456C20.2818 9.57324 18.538 9.57324 17.4652 10.6455ZM20.6128 13.7931L20.4592 13.9468L18.0534 11.541L18.2071 11.3873C18.8701 10.7242 19.9498 10.7242 20.6128 11.3873C20.9338 11.7089 21.1112 12.1359 21.1112 12.5902C21.1111 13.0445 20.9338 13.4715 20.6128 13.7931Z" fill="#333333"/>
<path d="M11.7581 24.1313L8.61065 20.9838L9.55123 20.0432C9.78104 19.8145 10.1535 19.8145 10.3832 20.0432C10.4945 20.1545 10.5558 20.3019 10.5558 20.4592C10.5558 20.6166 10.4945 20.764 10.3832 20.8752L9.59629 21.6621L10.338 22.4038L11.0976 21.6442L13.0648 22.8245L13.8297 22.0597L11.5802 20.7099C11.5928 20.6271 11.6049 20.5441 11.6049 20.4586C11.6049 20.0212 11.4344 19.6098 11.1249 19.3008C10.4865 18.6624 9.44779 18.6624 8.80939 19.3008L7.12708 20.9837L11.0164 24.873L11.7581 24.1313Z" fill="#333333"/>
<path d="M14.9057 20.9836L13.3319 19.4098L14.6885 18.0532L16.2623 19.627L17.004 18.8853L13.1147 14.996L10.2745 17.8361L14.1639 21.7254L14.9057 20.9836ZM11.7581 17.8361L13.1147 16.4796L13.9466 17.3115L12.5901 18.6681L11.7581 17.8361Z" fill="#333333"/>
<path d="M20.1517 15.7377L16.2624 11.8484L15.5206 12.5902L17.8136 14.8837L13.992 14.1189L13.4222 14.6885L17.3116 18.5779L18.0533 17.8361L15.7598 15.5426L19.582 16.3075L20.1517 15.7377Z" fill="#333333"/>
<path d="M26.4918 0C23.5431 0 21.1352 2.33074 20.9967 5.2459H22.0459C22.1829 2.90932 24.1212 1.0492 26.4918 1.0492C28.9506 1.0492 30.9508 3.04945 30.9508 5.5082C30.9508 7.96695 28.9506 9.9672 26.4918 9.9672C25.9803 9.9672 25.4878 9.87169 25.0225 9.71019C25.1232 9.46518 25.1803 9.19869 25.1803 8.91811C25.1803 7.76083 24.2392 6.8197 23.0819 6.8197C21.9247 6.8197 20.9835 7.76083 20.9835 8.91811C20.9835 10.0754 21.9248 11.0164 23.082 11.0164C23.5594 11.0164 23.9949 10.8501 24.3478 10.5805C25.0135 10.8612 25.7385 11.0164 26.4918 11.0164C29.5292 11.0164 32 8.54553 32 5.5082C32 2.47087 29.5293 0 26.4918 0ZM24.1312 8.918C24.1312 9.03499 24.1077 9.14515 24.0725 9.25003C23.5506 8.91216 23.102 8.46368 22.7547 7.92597C22.8581 7.89182 22.9667 7.86879 23.082 7.86879C23.6606 7.8689 24.1312 8.33942 24.1312 8.918ZM23.082 9.9672C22.5035 9.9672 22.0328 9.49669 22.0328 8.918C22.0328 8.86236 22.0407 8.80937 22.0491 8.75639C22.3874 9.22062 22.7946 9.61831 23.2488 9.95034C23.1943 9.95938 23.1392 9.9672 23.082 9.9672Z" fill="#333333"/>
</svg>
