<svg width="90" height="22" viewBox="0 0 90 22" fill="none" xmlns="http://www.w3.org/2000/svg">
<path fill-rule="evenodd" clip-rule="evenodd" d="M42.1211 2.78759C39.7802 3.52494 37.4719 4.38514 35.1377 5.26019C28.6859 7.67888 13.8669 13.5073 5.48527 16.8039C3.9101 17.4234 2.56229 17.9535 1.54007 18.3548C0.959803 18.5826 0.305202 18.2956 0.0779817 17.7139C-0.149238 17.1322 0.136966 16.476 0.717237 16.2483C1.73548 15.8486 3.07962 15.3199 4.65157 14.7016C13.0288 11.4068 27.8757 5.56732 34.3472 3.14126C36.7494 2.24072 39.1875 1.33166 41.6748 0.557296C41.8113 0.514804 41.95 0.464824 42.118 0.404253C42.1488 0.393171 42.1805 0.381735 42.2134 0.369926C42.4127 0.298316 42.6484 0.215296 42.8941 0.147991C43.3759 0.0159882 44.0286 -0.0951825 44.7162 0.12562C45.3266 0.321599 45.4681 0.86954 45.4927 1.06056C45.5174 1.25301 45.4857 1.4042 45.4767 1.44665C45.4535 1.55575 45.4184 1.64039 45.4084 1.66453L45.4081 1.66535C45.3802 1.73251 45.3479 1.79561 45.327 1.83547C45.2796 1.92574 45.2142 2.04102 45.1403 2.16791C44.9896 2.42668 44.7717 2.78789 44.5109 3.2138C43.9878 4.06801 43.2769 5.20785 42.5495 6.36544C41.1013 8.67046 39.5622 11.087 39.3105 11.46C39.096 11.7778 38.7699 12.2047 38.4199 12.663C38.3426 12.7642 38.2641 12.867 38.1854 12.9705C37.7343 13.5633 37.2414 14.2227 36.7946 14.8907C36.3441 15.5643 35.9654 16.2105 35.7266 16.775C35.5909 17.0959 35.5229 17.3389 35.4931 17.5144C35.6207 17.5243 35.7908 17.527 36.0092 17.515C36.822 17.4702 37.9369 17.2472 39.1282 16.9406C41.0127 16.4557 42.8374 15.834 43.7253 15.5314C43.9674 15.449 44.1398 15.3902 44.2248 15.3644C52.1249 12.9689 60.0439 10.6332 68.293 9.2752C68.6177 9.22175 69.0679 9.12971 69.6073 9.01943C71.3403 8.66511 73.9946 8.12246 76.3673 8.06623C77.9312 8.02917 79.5753 8.18887 80.8719 8.86413C81.5392 9.21164 82.1324 9.7052 82.5572 10.3876C82.9827 11.0709 83.1985 11.8783 83.2111 12.789C83.215 13.0681 83.1625 13.4017 83.109 13.6923C83.0511 14.0068 82.9714 14.3748 82.8865 14.7594C82.8685 14.8406 82.8503 14.9228 82.8319 15.0059C82.6723 15.7263 82.4975 16.5153 82.369 17.2821C82.2227 18.1559 82.156 18.8956 82.2076 19.4051C82.2212 19.5392 82.2386 19.6296 82.2541 19.6883C83.0095 19.8114 83.9894 19.6977 85.1319 19.4525C85.6793 19.335 86.2281 19.1961 86.7791 19.0567L86.9254 19.0196C87.5138 18.8709 88.1124 18.7216 88.6635 18.6181C89.276 18.5029 89.8656 18.9074 89.9805 19.5214C90.0953 20.1354 89.6919 20.7264 89.0794 20.8416C88.6073 20.9303 88.0745 21.0623 87.4772 21.2132C87.4274 21.2258 87.3771 21.2385 87.3265 21.2514C86.7823 21.3891 86.1942 21.538 85.6043 21.6646C84.3463 21.9346 82.8998 22.1476 81.6197 21.8696C80.3487 21.5935 80.0368 20.3673 79.9624 19.6337C79.8786 18.8062 79.9913 17.8157 80.1435 16.9075C80.2824 16.0785 80.4704 15.2302 80.6286 14.5168C80.6472 14.4328 80.6654 14.3506 80.6831 14.2706C80.7686 13.8832 80.8401 13.5518 80.8897 13.2819C80.9144 13.1477 80.9318 13.0388 80.9426 12.9531C80.948 12.9107 80.9512 12.8779 80.953 12.8535C80.9548 12.8283 80.9546 12.8184 80.9547 12.8204C80.9468 12.2561 80.8176 11.8661 80.6428 11.5853C80.4674 11.3035 80.2052 11.0662 79.8316 10.8716C79.0464 10.4627 77.8664 10.2936 76.4206 10.3278C74.2759 10.3787 71.9904 10.8451 70.2619 11.1978C69.6464 11.3235 69.1015 11.4347 68.6587 11.5075C60.5735 12.8385 52.7849 15.1322 44.8782 17.5298C44.8784 17.5297 44.8773 17.5301 44.8746 17.5309L44.8638 17.5343L44.8269 17.5465C44.796 17.5567 44.7565 17.5701 44.7075 17.5867C44.6557 17.6043 44.5979 17.6241 44.5323 17.6465C44.471 17.6674 44.4029 17.6906 44.3267 17.7166C44.0172 17.822 43.6047 17.9613 43.1244 18.1178C42.1662 18.4298 40.929 18.8129 39.6893 19.1318C38.4657 19.4467 37.1754 19.7164 36.133 19.7738C35.6225 19.8019 35.0732 19.7861 34.5939 19.6412C34.1043 19.4931 33.465 19.1272 33.2837 18.3334C33.0917 17.4927 33.3458 16.6087 33.649 15.8919C33.9686 15.1361 34.4368 14.3537 34.9202 13.6309C35.4074 12.9024 35.9354 12.1974 36.391 11.5986C36.4808 11.4806 36.5666 11.3681 36.6483 11.2611C36.9958 10.8058 37.2676 10.4497 37.4415 10.1921C37.6672 9.85781 39.1818 7.48062 40.64 5.15978C41.1659 4.32291 41.6809 3.49874 42.1211 2.78759ZM82.2917 19.7832C82.2909 19.7851 82.2844 19.7773 82.2752 19.7542C82.2879 19.7698 82.2926 19.7813 82.2917 19.7832Z" fill="black"/>
</svg>
